#!OML:ASF H:\Terrain\Patient Classification 1\Walking\liu\liu.ASF
:FULLY-SPECIFIED
:DEGREES
275
root 19.928881 33.759399 3.434000 11.811540 -8.011040 3.655260
lowerback -9.552700 -3.054360 -5.704660
upperback -1.209742 -3.875200 4.323600
thorax 4.449720 -2.002800 7.403940
lowerneck -44.013599 -7.400820 -22.633200
upperneck 43.183998 -8.711020 22.937000
head 22.305201 -3.030120 10.875240
rclavicle -0.000000 -0.000000
rhumerus -91.749001 17.339500 -166.457397
rradius 85.487396
rwrist -47.899601
rhand -60.283001 -43.639000
rfingers 14.250040
rthumb -6.908180 -103.542603
lclavicle -0.000000 -0.000000
lhumerus -43.103802 -27.090799 174.210800
lradius 47.511600
lwrist -0.146449
lhand -25.436399 -49.308601
lfingers 14.250040
lthumb 26.729799 9.794100
rfemur -51.941799 -3.382720 36.000801
rtibia 128.367203
rfoot -36.813999 -23.581200
rtoes -38.699402
lfemur -35.279598 13.067400 -56.748199
ltibia 59.360802
lfoot -34.448799 13.684640
ltoes -9.343520
276
root 19.956261 33.739799 3.700740 11.516460 -7.364300 4.026260
lowerback -9.674420 -3.391480 -6.100300
upperback -1.090646 -4.302340 4.349560
thorax 4.693380 -2.226260 7.618600
lowerneck -43.919800 -7.376320 -22.528400
upperneck 43.667000 -8.657300 22.551001
head 22.446600 -3.048860 10.736340
rclavicle -0.000000 0.000000
rhumerus -91.586998 16.754959 -166.015396
rradius 85.182800
rwrist -46.868999
rhand -59.391800 -43.987598
rfingers 14.250040
rthumb -6.047620 -103.904198
lclavicle -0.000000 0.000000
lhumerus -41.734600 -27.852600 174.110992
lradius 47.902401
lwrist 0.157432
lhand -26.078600 -48.979599
lfingers 14.250040
lthumb 26.110600 10.163220
rfemur -53.739601 -3.488100 35.713001
rtibia 126.797798
rfoot -37.168201 -23.658199
rtoes -36.131802
lfemur -33.797001 12.505640 -57.086201
ltibia 58.959000
lfoot -35.007801 13.279840
ltoes -6.022200
277
root 19.987480 33.717999 3.977120 11.264280 -6.651720 4.195260
lowerback -10.117280 -3.660340 -6.094320
upperback -0.688466 -4.650320 4.298560
thorax 5.385900 -2.418520 7.517000
lowerneck -44.218800 -7.337100 -22.314800
upperneck 43.897400 -8.580760 22.256001
head 22.566401 -3.024880 10.609620
rclavicle 0.000000 -0.000000
rhumerus -91.324799 16.771441 -166.141602
rradius 85.101799
rwrist -47.544800
rhand -58.970001 -45.537800
rfingers 14.250040
rthumb -5.640180 -105.459999
lclavicle 0.000000 -0.000000
lhumerus -39.687000 -28.223600 173.740402
lradius 48.115799
lwrist 0.213502
lhand -25.542801 -48.502399
lfingers 14.250040
lthumb 26.627199 10.607120
rfemur -55.415798 -3.686420 35.599800
rtibia 124.995598
rfoot -37.554001 -23.733801
rtoes -36.411400
lfemur -32.282799 12.058200 -57.277000
ltibia 58.690399
lfoot -35.973202 12.715420
ltoes -2.176420
278
root 19.999241 33.694000 4.216180 11.320300 -5.788560 3.869840
lowerback -10.041660 -4.008460 -5.804120
upperback -0.772502 -5.137580 4.474960
thorax 5.295520 -2.656560 7.501200
lowerneck -43.814999 -7.309420 -22.611401
upperneck 43.795601 -8.544980 22.515200
head 22.459999 -3.013060 10.759620
rclavicle -0.000000 -0.000000
rhumerus -91.919998 17.289761 -166.346802
rradius 85.521400
rwrist -48.376999
rhand -58.236198 -46.261600
rfingers 14.250040
rthumb -4.931520 -106.192596
lclavicle -0.000000 -0.000000
lhumerus -38.256199 -28.205999 173.476593
lradius 48.331600
lwrist -0.302526
lhand -26.554199 -48.799999
lfingers 14.250040
lthumb 25.652000 10.371980
rfemur -57.489601 -3.422340 36.183800
rtibia 122.943001
rfoot -39.875599 -23.734800
rtoes -36.965599
lfemur -31.147800 11.846300 -56.917801
ltibia 58.353401
lfoot -36.309601 12.331580
ltoes -0.945266
279
root 20.015400 33.684601 4.462060 11.174680 -4.835000 3.813720
lowerback -9.786260 -4.389820 -5.688840
upperback -0.907474 -5.659180 4.537560
thorax 5.056540 -2.909940 7.471280
lowerneck -43.456402 -7.361820 -23.047199
upperneck 44.036400 -8.649580 22.960400
head 22.517599 -3.055680 10.997800
rclavicle -0.000000 0.000000
rhumerus -92.427399 16.872900 -166.050598
rradius 85.393997
rwrist -47.585602
rhand -58.219398 -46.718800
rfingers 14.250040
rthumb -4.915240 -106.649803
lclavicle -0.000000 0.000000
lhumerus -37.234001 -28.490400 173.264206
lradius 48.775200
lwrist -0.550122
lhand -28.119400 -48.788399
lfingers 14.250040
lthumb 24.143200 10.475240
rfemur -59.201199 -3.356620 36.378201
rtibia 120.691200
rfoot -41.706200 -23.892401
rtoes -33.557201
lfemur -29.653200 11.619520 -56.827000
ltibia 57.862999
lfoot -36.555401 11.919940
ltoes -0.139269
280
root 20.038200 33.693199 4.721940 10.814080 -3.997600 4.232260
lowerback -9.890620 -4.708280 -5.950760
upperback -0.490360 -6.063500 4.342560
thorax 5.584400 -3.128880 7.371400
lowerneck -43.585800 -7.349880 -22.972401
upperneck 44.012798 -8.649460 22.987801
head 22.532600 -3.042120 10.995440
rclavicle -0.000000 0.000000
rhumerus -91.486198 15.046340 -165.346207
rradius 83.965599
rwrist -45.578800
rhand -57.908798 -43.433601
rfingers 14.250040
rthumb -4.615260 -103.368202
lclavicle -0.000000 0.000000
lhumerus -35.351398 -30.034401 172.848404
lradius 49.276001
lwrist 0.847302
lhand -28.319799 -48.255001
lfingers 14.250040
lthumb 23.949800 11.019940
rfemur -60.665798 -3.399220 35.889999
rtibia 118.341797
rfoot -40.874199 -24.536600
rtoes -32.055199
lfemur -27.889400 11.094120 -57.202801
ltibia 57.202801
lfoot -37.313999 11.375360
ltoes 0.327848
281
root 20.042999 33.701401 4.965040 10.831480 -3.064040 4.925480
lowerback -10.029060 -5.125580 -6.824840
upperback -0.266580 -6.564220 4.222480
thorax 5.980460 -3.400560 7.686240
lowerneck -43.694199 -7.270260 -23.082800
upperneck 43.926800 -8.527880 23.170000
head 22.511600 -2.970860 11.102160
rclavicle 0.000000 0.000000
rhumerus -91.074997 14.445080 -165.115204
rradius 83.372002
rwrist -44.746799
rhand -56.577801 -41.066601
rfingers 14.250040
rthumb -3.329780 -101.013000
lclavicle 0.000000 0.000000
lhumerus -33.287399 -31.272400 172.510605
lradius 49.284801
lwrist 2.429500
lhand -28.768000 -48.613201
lfingers 14.250040
lthumb 23.517599 10.686700
rfemur -62.615601 -3.328580 35.134800
rtibia 115.899597
rfoot -40.566399 -24.786800
rtoes -32.984402
lfemur -26.447001 10.398080 -57.901600
ltibia 56.210400
lfoot -37.857800 11.355640
ltoes -0.954046
282
root 20.047199 33.709599 5.200860 11.375940 -1.853088 5.332440
lowerback -10.370400 -5.648760 -7.467460
upperback -0.450726 -7.217060 4.292460
thorax 6.087840 -3.734720 8.052840
lowerneck -43.896400 -7.213360 -23.232000
upperneck 44.294601 -8.442580 23.319599
head 22.683399 -2.923940 11.217960
rclavicle 0.000000 -0.000000
rhumerus -91.931396 15.934480 -165.715393
rradius 84.187798
rwrist -46.179401
rhand -57.138199 -46.713600
rfingers 14.250040
rthumb -3.871080 -106.655403
lclavicle 0.000000 -0.000000
lhumerus -31.732000 -30.761801 172.318405
lradius 49.137402
lwrist 2.099300
lhand -29.841200 -49.463799
lfingers 14.250040
lthumb 22.482599 9.893780
rfemur -64.870399 -3.452180 34.692001
rtibia 113.295403
rfoot -42.623600 -24.192600
rtoes -32.147800
lfemur -25.342199 9.594760 -58.366199
ltibia 54.887600
lfoot -37.711800 11.569800
ltoes -2.631500
283
root 20.059200 33.724800 5.448220 11.683140 -0.881092 5.010440
lowerback -10.360800 -6.014160 -7.399080
upperback -0.748038 -7.719220 4.621120
thorax 5.843280 -3.976900 8.319920
lowerneck -43.244999 -7.066880 -23.193001
upperneck 44.139000 -8.238260 23.061800
head 22.462799 -2.875800 11.131600
rclavicle 0.000000 0.000000
rhumerus -92.686401 16.659599 -165.735199
rradius 84.173401
rwrist -46.685200
rhand -58.213402 -49.329601
rfingers 14.250040
rthumb -4.909540 -109.261002
lclavicle 0.000000 0.000000
lhumerus -30.698400 -30.195999 172.430603
lradius 49.291199
lwrist 1.114884
lhand -30.584400 -49.570999
lfingers 14.250040
lthumb 21.765800 9.825000
rfemur -66.578003 -3.136380 34.920601
rtibia 110.499802
rfoot -44.379601 -23.832600
rtoes -31.466000
lfemur -23.874001 9.183040 -57.966400
ltibia 53.318600
lfoot -37.666401 11.228000
ltoes -3.501360
